<svg id="Layer_3" data-name="Layer 3" xmlns="http://www.w3.org/2000/svg" viewBox="0 0 250 250"><defs><style>.cls-1{fill:#fff200;}.cls-1,.cls-2,.cls-3,.cls-4,.cls-5,.cls-6,.cls-7,.cls-9{fill-rule:evenodd;}.cls-2{fill:#ffd200;}.cls-3{fill:#fcb316;}.cls-4{fill:#f7941d;}.cls-5{fill:#f47521;}.cls-6{fill:#f05123;}.cls-7{fill:#ed1c24;}.cls-8{fill:#fff;}.cls-10,.cls-9{fill:#050606;}.cls-11{font-size:33.14px;fill:#231f20;font-family:GillSans, Gill Sans;}</style></defs><title>vit banner</title><g id="_Group_" data-name="&lt;Group&gt;"><g id="_Group_2" data-name="&lt;Group&gt;"><path id="_Path_" data-name="&lt;Path&gt;" class="cls-1" d="M124.75,2.15A122.61,122.61,0,1,1,2.15,124.75,122.61,122.61,0,0,1,124.75,2.15Z"/><path id="_Path_2" data-name="&lt;Path&gt;" class="cls-2" d="M124.75,95.56a75.9,75.9,0,1,1-75.9,75.91,75.9,75.9,0,0,1,75.9-75.91Z"/><path id="_Path_3" data-name="&lt;Path&gt;" class="cls-3" d="M153.94,124.75a46.71,46.71,0,1,1-46.71,46.72,46.71,46.71,0,0,1,46.71-46.72Z"/><path id="_Path_4" data-name="&lt;Path&gt;" class="cls-4" d="M153.94,124.75a29.2,29.2,0,1,1-29.19,29.19,29.2,29.2,0,0,1,29.19-29.19Z"/><path id="_Path_5" data-name="&lt;Path&gt;" class="cls-5" d="M142.26,136.42a17.53,17.53,0,1,1-17.51,17.52,17.52,17.52,0,0,1,17.51-17.52Z"/><path id="_Path_6" data-name="&lt;Path&gt;" class="cls-6" d="M145.18,153.94a8.77,8.77,0,1,1-8.76,8.76,8.76,8.76,0,0,1,8.76-8.76Z"/><path id="_Path_7" data-name="&lt;Path&gt;" class="cls-7" d="M148.1,153.94a5.84,5.84,0,1,1-5.84,5.85,5.84,5.84,0,0,1,5.84-5.85Z"/><path id="_Compound_Path_" data-name="&lt;Compound Path&gt;" class="cls-8" d="M200.71,247.42H2.08V2.08H200.71Zm-75.89-.14h75.76V171.53H124.82Zm-122.6,0H124.68V124.83H2.22ZM154,171.39h46.57V124.83H154Zm-11.68,0h11.53V159.84H142.33Zm-17.51,0H142.2V154H124.82Zm23.36-11.68h5.68V154h-5.68Zm-5.85,0H148V154h-5.69Zm5.69-5.84h5.84v-29h-29v29ZM2.22,124.68H200.58V2.22H2.22Z"/><g id="_Group_3" data-name="&lt;Group&gt;"><path id="_Compound_Path_2" data-name="&lt;Compound Path&gt;" class="cls-9" d="M153.94,159.79a5.84,5.84,0,1,0-11.68,0h-15a16.26,16.26,0,0,1-1.09-5.85,27.73,27.73,0,0,1,27.74-27.73,45.27,45.27,0,0,1,43.72,33.58Zm92,0v-35h1.46V247.36H245.9V161.25H199.51a46.39,46.39,0,0,1,1.12,10.22h0a75.89,75.89,0,0,1-75.88,75.89h0A122.67,122.67,0,0,1,7.22,159.79H125.73a17.69,17.69,0,0,1-1-5.85,29.19,29.19,0,0,1,29.19-29.19,46.72,46.72,0,0,1,45.22,35Zm-102.18,0a4.38,4.38,0,1,1,8.75,0Zm8.65,1.46A10.23,10.23,0,0,1,142.26,170a16,16,0,0,1-14.3-8.75Zm45.64,0a44.66,44.66,0,0,1,1.17,10.22h0a74.44,74.44,0,0,1-74.43,74.43h0A121.21,121.21,0,0,1,9.2,161.25H126.33a17.53,17.53,0,0,0,15.93,10.22,11.7,11.7,0,0,0,11.58-10.22Z"/><path id="_Compound_Path_3" data-name="&lt;Compound Path&gt;" class="cls-10" d="M247.92,247.92h-2.59V161.81H200.22a48,48,0,0,1,1,9.66,76.5,76.5,0,0,1-76.46,76.45A123.25,123.25,0,0,1,6.68,160l-.22-.73H125a18.06,18.06,0,0,1-.79-5.28,29.8,29.8,0,0,1,29.77-29.75,47.25,47.25,0,0,1,45.66,35h45.73v-35h2.59Zm-1.46-1.14h.32V125.32h-.32v35H198.73l-.11-.43a46.13,46.13,0,0,0-44.68-34.6,28.66,28.66,0,0,0-28.63,28.62,17,17,0,0,0,1,5.66l.27.75H8a121.79,121.79,0,0,0,116.76,86.43,75.33,75.33,0,0,0,75.32-75.31A46.88,46.88,0,0,0,199,161.36l-.16-.69h47.66Zm-121.71-.32a120.62,120.62,0,0,1-72.63-24,122,122,0,0,1-43.46-61l-.23-.74H126.7l.14.34a17,17,0,0,0,15.42,9.88,11.12,11.12,0,0,0,11-9.71l.06-.51h45.13l.1.45a45.76,45.76,0,0,1,1.18,10.35,75,75,0,0,1-75,75ZM10,161.81a120.62,120.62,0,0,0,114.77,83.52,73.85,73.85,0,0,0,73.85-73.86,45.15,45.15,0,0,0-1-9.66H154.33A12.27,12.27,0,0,1,142.26,172,18.15,18.15,0,0,1,126,161.81Zm132.28,8.75a16.56,16.56,0,0,1-14.81-9.06l-.43-.83h26l-.1.66A10.82,10.82,0,0,1,142.26,170.56Zm-13.34-8.75a15.42,15.42,0,0,0,13.34,7.63,9.73,9.73,0,0,0,9.44-7.63Zm69.47-1.46h-45v-.56a5.27,5.27,0,1,0-10.54,0v.56H126.91l-.15-.35a16.75,16.75,0,0,1-1.13-6.06,28.34,28.34,0,0,1,28.31-28.3,45.86,45.86,0,0,1,44.26,34Zm-43.92-1.13h42.44a44.7,44.7,0,0,0-43-32.44,27.19,27.19,0,0,0-27.17,27.16,15.52,15.52,0,0,0,.92,5.28h14a6.4,6.4,0,0,1,12.75,0ZM153,160.35h-9.89v-.56a4.95,4.95,0,1,1,9.89,0Zm-8.71-1.13h7.54a3.81,3.81,0,0,0-7.54,0Z"/></g></g><text class="cls-11" transform="translate(70.29 63.45)">DTEAM</text></g></svg>